<?xml version="1.0" encoding="UTF-8"?>
<svg version="1.1" xmlns="http://www.w3.org/2000/svg" width="1920" height="1080">
<path d="M0 0 C0.8058252 0.7110791 0.8058252 0.7110791 1.62792969 1.43652344 C50.17746339 44.56925457 78.94365634 105.67525527 85 170 C85.11214844 171.14597656 85.22429688 172.29195312 85.33984375 173.47265625 C87.29081541 197.17829818 86.74118407 221.80104527 82.3671875 245.21875 C82.24601562 246.1365625 82.12484375 247.054375 82 248 C81.81050781 249.16660156 81.62101562 250.33320312 81.42578125 251.53515625 C81.52027626 258.22067851 86.59758422 263.69017222 90.3125 268.9375 C91.08834717 270.05672567 91.86244814 271.1771639 92.63476562 272.29882812 C93.82218797 274.02327519 95.01056585 275.7469245 96.20504761 277.4664917 C100.35220039 283.4524408 104.28606614 289.57073249 108.2253418 295.69458008 C110.89242811 299.84054968 113.58861729 303.96677139 116.296875 308.0859375 C116.73593674 308.7538179 117.17499847 309.4216983 117.62736511 310.1098175 C119.0011209 312.19851194 120.37555935 314.28675618 121.75 316.375 C122.74811324 317.89253448 123.74615842 319.41011372 124.74414062 320.92773438 C126.80638059 324.0636477 128.86890565 327.19937321 130.93164062 330.33496094 C133.8879752 334.82925279 136.84272999 339.3245812 139.796875 343.8203125 C140.26910492 344.53892456 140.74133484 345.25753662 141.22787476 345.9979248 C143.59664483 349.60274441 145.96493601 353.20787753 148.33251953 356.81347656 C152.80513277 363.62374775 157.28212557 370.43102175 161.77386475 377.22869873 C163.88482283 380.4239242 165.99340296 383.62071553 168.10180664 386.81762695 C169.10338824 388.3348489 170.10612249 389.85131068 171.11010742 391.36694336 C172.50606024 393.47445649 173.89794259 395.58460724 175.2890625 397.6953125 C175.69327423 398.30323639 176.09748596 398.91116028 176.51394653 399.5375061 C178.70052579 402.86431525 180.72137847 406.24331113 182.6446228 409.72994995 C183.08780539 410.53206343 183.53098797 411.3341769 183.98760033 412.16059685 C184.32169222 412.76759989 184.65578411 413.37460293 185 414 C159.7229994 414.68211379 134.45210031 415.17697861 109.16706657 415.41499138 C103.78894652 415.46582964 98.41090004 415.52278445 93.03285217 415.58070374 C77.78002847 415.74433275 62.5271787 415.90409319 47.27416992 416.04956055 C38.76426199 416.13076886 30.25445296 416.21877577 21.74469477 416.31442744 C17.27489039 416.36437294 12.80511209 416.4108257 8.33518791 416.4487133 C4.16249942 416.4840817 -0.01000137 416.52830303 -4.18252754 416.57927513 C-5.70625991 416.59630635 -7.23003279 416.61008771 -8.75382614 416.62029648 C-19.03814103 416.69156316 -27.418033 416.79571102 -36.125 422.875 C-113.57997615 474.73262484 -217.12629113 483.89327201 -306.7355957 466.18725586 C-331.78255183 460.91411387 -357.13981564 452.56263595 -380 441 C-380.86608887 440.5683252 -381.73217773 440.13665039 -382.62451172 439.69189453 C-414.36060494 423.79845905 -443.98784663 402.20964915 -467 375 C-467.72445312 374.17628906 -468.44890625 373.35257813 -469.1953125 372.50390625 C-516.57606771 317.58184113 -536.58942962 243.80829328 -531.48681641 172.21948242 C-527.1580367 120.22503667 -507.9559192 71.50201844 -475 31 C-474.56816406 30.4652002 -474.13632812 29.93040039 -473.69140625 29.37939453 C-461.97103156 14.97097739 -448.83388044 1.21838033 -434 -10 C-432.81462248 -10.92516442 -431.62976386 -11.85099391 -430.4453125 -12.77734375 C-404.62327329 -32.77711784 -375.61476679 -47.80430859 -345 -59 C-343.8258252 -59.43747559 -343.8258252 -59.43747559 -342.62792969 -59.88378906 C-315.24971097 -69.99098575 -286.01341021 -75.44592911 -257 -78 C-255.78183594 -78.11214844 -254.56367187 -78.22429687 -253.30859375 -78.33984375 C-162.44685049 -85.14282555 -69.03061114 -61.01470323 0 0 Z M-297 106 C-298.15435547 106.89332031 -298.15435547 106.89332031 -299.33203125 107.8046875 C-319.88127887 124.74667075 -335.47856143 154.23332325 -338.76855469 180.55908203 C-341.8246756 212.79019685 -333.62461957 245.54018073 -312.80078125 270.80078125 C-304.8737426 280.0226175 -296.39433972 288.59276881 -286 295 C-284.89205078 295.7425 -284.89205078 295.7425 -283.76171875 296.5 C-259.75688682 311.99219405 -228.32464349 316.94320894 -200.5 311.375 C-170.83718204 304.94036433 -143.8162139 288.25996809 -127.12109375 262.5703125 C-109.57317785 233.50996341 -101.65149578 202.19053244 -109.74609375 168.5390625 C-111.54437657 161.75314333 -113.97160297 155.33892259 -117 149 C-117.32629395 148.31309082 -117.65258789 147.62618164 -117.98876953 146.91845703 C-122.9448544 136.66632254 -128.71076871 127.7494912 -136 119 C-136.42265137 118.48018555 -136.84530273 117.96037109 -137.28076172 117.42480469 C-153.48967816 97.60095005 -179.02154485 85.0742775 -204 81 C-205.05058594 80.81695312 -206.10117187 80.63390625 -207.18359375 80.4453125 C-240.27840695 76.58368639 -270.87151607 85.72616996 -297 106 Z " fill="#CD2B22" transform="translate(1171,321)"/>
<path d="M0 0 C19.40615157 -0.69827232 38.26306276 5.76550056 52.85546875 18.59375 C54.45329671 20.09934765 56.03815151 21.61891622 57.60546875 23.15625 C58.17136719 23.69765625 58.73726562 24.2390625 59.3203125 24.796875 C69.2665827 35.24441611 73.35360294 49.77499854 73.6953125 63.859375 C73.04513382 78.99686846 66.85335486 94.67581028 55.60546875 105.15625 C37.84985109 120.30154714 17.87801755 126.5886438 -5.39453125 125.15625 C-24.52847039 123.12227359 -42.17510599 114.23700666 -54.625 99.51953125 C-65.03067874 85.83401381 -68.68845671 72.1310147 -67.39453125 55.15625 C-65.02238595 38.43162894 -55.57830231 24.51670092 -42.4375 14.2578125 C-29.63890461 5.41873121 -15.38676919 1.00403062 0 0 Z " fill="#071B53" transform="translate(969.39453125,452.84375)"/>
<path d="M0 0 C3.50131769 3.21965413 6.04865495 6.84623388 8.61328125 10.81640625 C9.05524338 11.49191025 9.49720551 12.16741425 9.95256042 12.86338806 C11.4103171 15.09355955 12.86132972 17.32803834 14.3125 19.5625 C15.34193697 21.13965654 16.37189378 22.71647388 17.40234375 24.29296875 C19.54319744 27.56916309 21.68180398 30.84680754 23.81884766 34.12548828 C28.2218936 40.87704824 32.6520154 47.61076386 37.08218384 54.34454346 C39.4701734 57.97492084 41.85605608 61.60668242 44.2421875 65.23828125 C48.58660585 71.84953121 52.93153146 78.4604477 57.27668762 85.07121277 C59.67766016 88.72418524 62.07831413 92.37736633 64.47827148 96.03100586 C65.4243106 97.47119522 66.37035551 98.91138078 67.31640625 100.3515625 C68.01596687 101.41652702 68.01596687 101.41652702 68.72966003 102.50300598 C71.62743239 106.91350442 74.52849702 111.32181868 77.43188477 115.72862244 C79.35250006 118.64432324 81.27155118 121.56105162 83.19036865 124.47793579 C84.0894216 125.84379161 84.98917628 127.20918584 85.88970947 128.57406616 C87.13797482 130.4661247 88.38368868 132.35984096 89.62890625 134.25390625 C90.33088135 135.31939697 91.03285645 136.3848877 91.75610352 137.48266602 C93.61747574 140.35608981 95.38261948 143.28191334 97.14024353 146.21983337 C97.67687087 147.11621993 98.21349821 148.01260649 98.76638699 148.93615627 C99.17347928 149.6172247 99.58057158 150.29829313 100 151 C81.76626528 151.26552385 63.53246973 151.52640973 45.29859734 151.78230286 C36.82533609 151.90131544 28.35209839 152.02166537 19.87890625 152.14550781 C-20.41732197 152.73368012 -60.698487 153.17113588 -101 153 C-95.52334771 147.49940541 -95.52334771 147.49940541 -92.94921875 145.3515625 C-92.15559937 144.685802 -92.15559937 144.685802 -91.34594727 144.0065918 C-90.79865967 143.5506665 -90.25137207 143.09474121 -89.6875 142.625 C-88.52317196 141.6448466 -87.35910823 140.66437914 -86.1953125 139.68359375 C-84.4222196 138.19298141 -82.6467137 136.70559475 -80.8671875 135.22265625 C-70.22849181 126.17285667 -60.55057378 116.02945572 -52 105 C-51.22527344 104.04222656 -50.45054688 103.08445312 -49.65234375 102.09765625 C-32.6671902 80.75181352 -19.95177187 56.31781962 -10 31 C-9.60425781 30.02546875 -9.20851563 29.0509375 -8.80078125 28.046875 C-6.17861602 21.28935829 -4.42515625 14.30393091 -2.66137695 7.28320312 C-2.45988037 6.48591797 -2.25838379 5.68863281 -2.05078125 4.8671875 C-1.87200439 4.14644043 -1.69322754 3.42569336 -1.5090332 2.68310547 C-1 1 -1 1 0 0 Z " fill="#FDFDFD" transform="translate(1250,581)"/>
<path d="M0 0 C3.18953474 3.86241305 6.01295105 7.87361427 8.78125 12.0390625 C9.23136444 12.71291489 9.68147888 13.38676727 10.14523315 14.08103943 C11.59952655 16.26057129 13.05000517 18.44260647 14.5 20.625 C14.99687317 21.37119598 15.49374634 22.11739197 16.00567627 22.88619995 C22.03502051 31.9428692 27.9925046 41.03274995 33.7487793 50.26611328 C38.13121124 57.27273275 42.72229698 64.133424 47.3215332 70.99902344 C54.26866748 81.37732981 61.12699323 91.81298637 67.97729492 102.25537109 C68.96272347 103.75748986 69.94815644 105.25960573 70.93359375 106.76171875 C71.42623215 107.51275879 71.91887054 108.26379883 72.42643738 109.03759766 C75.54501264 113.78976047 78.67205496 118.53623648 81.80558777 123.27854919 C83.90825515 126.46089389 86.00859837 129.64476956 88.1088562 132.82870483 C89.10749013 134.34119874 90.10723884 135.85295729 91.10818481 137.36392212 C92.50479092 139.47243429 93.89731064 141.58359416 95.2890625 143.6953125 C95.69330948 144.30329178 96.09755646 144.91127106 96.51405334 145.53767395 C98.7006004 148.86442414 100.72141093 152.24336998 102.6446228 155.72994995 C103.08780539 156.53206343 103.53098797 157.3341769 103.98760033 158.16059685 C104.32169222 158.76759989 104.65578411 159.37460293 105 160 C78.43870263 160.71226555 51.88213412 161.21684548 25.31297374 161.50525212 C20.62997789 161.55667857 15.94701822 161.61122914 11.26405334 161.66539001 C2.47165711 161.76663349 -6.3207665 161.86523471 -15.11320442 161.96278423 C-25.15510115 162.0743325 -35.1969618 162.18898229 -45.23882115 162.30383885 C-65.82584353 162.53924193 -86.41290629 162.77092482 -107 163 C-104.58755948 159.15250389 -104.58755948 159.15250389 -102.02803802 158.48816776 C-100.89188931 158.47965117 -100.89188931 158.47965117 -99.73278809 158.47096252 C-98.85562134 158.45463083 -97.97845459 158.43829914 -97.07470703 158.42147255 C-96.10839355 158.42361952 -95.14208008 158.42576649 -94.14648438 158.42797852 C-93.11753052 158.41434454 -92.08857666 158.40071056 -91.02844238 158.38666344 C-87.55014379 158.34489103 -84.07226082 158.33104823 -80.59375 158.31640625 C-78.09881558 158.29124483 -75.60390089 158.2640567 -73.10900879 158.23500061 C-68.37440259 158.18196339 -63.63986752 158.13500477 -58.90511847 158.09707993 C-49.17047816 158.01888902 -39.43698621 157.89005135 -29.703125 157.74560547 C-28.12971004 157.7224092 -26.55629492 157.69922416 -24.98287964 157.67605019 C-22.59580847 157.64086787 -20.20873766 157.60566349 -17.82166862 157.57033646 C-8.94111446 157.4394061 -0.06041141 157.31993146 8.8203125 157.20117188 C10.44745895 157.17936259 12.07460536 157.15754951 13.70175171 157.13573265 C16.15426155 157.10286366 18.60677162 157.07001174 21.0592823 157.03720534 C29.48111334 156.9245246 37.90292433 156.81037511 46.32473469 156.69616115 C63.54980283 156.46259015 80.77489296 156.23068428 98 156 C97.4972757 155.24853195 96.99455139 154.4970639 96.47659302 153.7228241 C94.56870685 150.86963907 92.66194848 148.01570661 90.75588989 145.16130066 C89.93881881 143.9381714 89.12133003 142.71532106 88.30337524 141.49278259 C82.72876019 133.16000384 77.251373 124.77507123 71.875 116.3125 C66.18063264 107.36761401 60.37824689 98.50693143 54.47631836 89.69775391 C46.09586841 77.17976412 37.8465173 64.57575693 29.58268738 51.98062134 C25.89969965 46.36807666 22.21066703 40.75953238 18.51953125 35.15234375 C16.94005438 32.75212481 15.36065611 30.35185418 13.78128052 27.9515686 C12.76815898 26.41227079 11.75471588 24.87318456 10.74093628 23.33432007 C9.33158094 21.19483691 7.92347292 19.05453777 6.515625 16.9140625 C6.10105545 16.28543808 5.6864859 15.65681366 5.25935364 15.00914001 C4.16531126 13.34439074 3.0822228 11.67245708 2 10 C1.40541992 9.09040527 0.81083984 8.18081055 0.19824219 7.24365234 C-1 5 -1 5 -0.6875 2.1875 C-0.460625 1.465625 -0.23375 0.74375 0 0 Z " fill="#0D2055" transform="translate(1251,575)"/>
</svg>
